<svg width="180" height="90" viewBox="0 0 180 90" fill="none" xmlns="http://www.w3.org/2000/svg">
<g id="amazon_prime 5" clip-path="url(#clip0_23_183)">
<path id="rect8" d="M180 0H0V90H180V0Z" fill="#3A5B79"/>
<path id="path10" fill-rule="evenodd" clip-rule="evenodd" d="M52.3633 54.6382V54.8673C52.4067 55.0935 52.5214 55.2999 52.6906 55.4564C62.7133 65.3613 76.2357 70.9172 90.3269 70.92C100.718 70.92 112.794 67.4018 121.123 60.7745C121.268 60.6991 121.397 60.595 121.501 60.4686C121.604 60.3422 121.682 60.196 121.727 60.039C121.773 59.8819 121.787 59.7172 121.767 59.5548C121.747 59.3924 121.695 59.2357 121.613 59.094C121.531 58.9524 121.422 58.8288 121.291 58.7308C121.16 58.6327 121.01 58.5623 120.851 58.5236C120.692 58.4849 120.527 58.4788 120.366 58.5057C120.204 58.5325 120.05 58.5919 119.912 58.68C110.893 62.7929 101.106 64.9511 91.1942 65.0127C77.8913 64.9951 64.8572 61.2662 53.5578 54.2454C53.3958 54.1433 53.2093 54.0867 53.0178 54.0818C52.8618 54.0805 52.7108 54.1364 52.5932 54.2389C52.4756 54.3414 52.3996 54.4835 52.3796 54.6382" fill="#18A6E1"/>
<path id="path12" fill-rule="evenodd" clip-rule="evenodd" d="M114.284 55.6364C114.162 55.7122 114.057 55.8124 113.975 55.9306C113.894 56.0489 113.837 56.1826 113.81 56.3236V56.4709C113.81 56.7164 114.071 56.8964 114.497 56.8309C117.164 56.4873 123.153 55.7182 124.217 57.1909C125.28 58.6636 123.022 64.6854 122.024 67.3854C121.713 68.1873 122.368 68.5309 123.055 67.9091C127.522 63.9 128.684 55.4891 127.768 54.2782C126.248 53.3846 124.48 53.0058 122.728 53.1982C119.726 53.0978 116.77 53.9514 114.284 55.6364Z" fill="#18A6E1"/>
<path id="path14" fill-rule="evenodd" clip-rule="evenodd" d="M100.817 46.9145C100.665 46.9418 100.51 46.9418 100.359 46.9145C100.245 46.8687 100.143 46.7957 100.064 46.7018C99.965 46.5648 99.8826 46.4165 99.8186 46.26L95.1059 33.8727L94.9095 33.4145C94.8882 33.3175 94.8882 33.217 94.9095 33.12C94.9095 32.8418 95.0895 32.6945 95.4659 32.6945H98.1822C98.2929 32.6783 98.4057 32.6841 98.5142 32.7115C98.6226 32.7389 98.7246 32.7875 98.8143 32.8544C98.9039 32.9212 98.9795 33.0051 99.0368 33.1013C99.094 33.1974 99.1317 33.3038 99.1477 33.4145L101.979 43.2327L104.875 33.4145C104.891 33.3038 104.929 33.1974 104.986 33.1013C105.043 33.0051 105.119 32.9212 105.208 32.8544C105.298 32.7875 105.4 32.7389 105.509 32.7115C105.617 32.6841 105.73 32.6783 105.84 32.6945H108.524C108.884 32.6945 109.08 32.8418 109.08 33.12C109.094 33.2177 109.094 33.3168 109.08 33.4145L108.95 33.8073L104.22 46.1945C104.167 46.3526 104.09 46.5016 103.991 46.6364C103.912 46.7303 103.811 46.8033 103.697 46.8491C103.546 46.8804 103.39 46.8804 103.239 46.8491L100.817 46.9145ZM111.764 46.9145C111.67 46.9321 111.573 46.9265 111.482 46.8982C111.39 46.8699 111.307 46.8197 111.239 46.752C111.172 46.6843 111.121 46.6012 111.093 46.5098C111.065 46.4183 111.059 46.3214 111.077 46.2273V33.3982C111.066 33.2992 111.075 33.1991 111.103 33.1036C111.131 33.0081 111.178 32.9191 111.24 32.8418C111.396 32.7421 111.581 32.7014 111.764 32.7273H114.415C114.607 32.7068 114.8 32.7594 114.955 32.8745C115.068 33.0367 115.121 33.2339 115.102 33.4309V46.26C115.119 46.4467 115.066 46.6329 114.955 46.7836C114.882 46.8476 114.796 46.8952 114.703 46.9234C114.609 46.9516 114.511 46.9598 114.415 46.9473L111.764 46.9145ZM113.09 30.5509C112.489 30.5687 111.904 30.3582 111.453 29.9618C111.043 29.5351 110.814 28.9663 110.814 28.3745C110.814 27.7828 111.043 27.214 111.453 26.7873C111.932 26.4049 112.526 26.1966 113.139 26.1966C113.751 26.1966 114.346 26.4049 114.824 26.7873C115.234 27.214 115.463 27.7828 115.463 28.3745C115.463 28.9663 115.234 29.5351 114.824 29.9618C114.373 30.3582 113.788 30.5687 113.188 30.5509H113.09ZM123.595 47.2745C122.486 47.2997 121.398 46.9732 120.486 46.3418C119.581 45.6867 118.878 44.791 118.457 43.7564C117.978 42.5217 117.761 41.2011 117.819 39.8782C117.727 37.9082 118.304 35.965 119.455 34.3636C119.957 33.7026 120.609 33.1707 121.357 32.8122C122.106 32.4536 122.929 32.2786 123.759 32.3018C125.124 32.2694 126.459 32.7086 127.539 33.5455V27C127.528 26.9024 127.539 26.8036 127.57 26.7105C127.601 26.6173 127.652 26.5319 127.719 26.46C127.868 26.3459 128.055 26.2932 128.242 26.3127H130.877C131.069 26.2922 131.262 26.3448 131.417 26.46C131.481 26.5333 131.528 26.6193 131.557 26.7124C131.585 26.8055 131.593 26.9035 131.58 27V46.2273C131.599 46.323 131.593 46.4218 131.564 46.5148C131.535 46.6079 131.483 46.6922 131.414 46.7603C131.344 46.8285 131.258 46.8782 131.165 46.9051C131.071 46.932 130.972 46.9353 130.877 46.9145H128.602C128.418 46.9301 128.234 46.8841 128.079 46.7836C127.946 46.6549 127.855 46.4897 127.817 46.3091L127.653 45.6709C126.552 46.6931 125.098 47.2501 123.595 47.2255V47.2745ZM124.92 44.1818C125.825 44.1761 126.707 43.9028 127.457 43.3964V36C126.624 35.5301 125.68 35.2927 124.724 35.3127C124.297 35.2868 123.87 35.3746 123.488 35.5672C123.106 35.7598 122.781 36.0503 122.548 36.4091C122.013 37.4136 121.764 38.5456 121.828 39.6818C121.759 40.8244 122.026 41.9622 122.597 42.9545C122.861 43.3163 123.213 43.6051 123.619 43.7939C124.026 43.9828 124.473 44.0656 124.92 44.0345V44.1818ZM155.864 47.3564C154.917 47.4094 153.97 47.2587 153.086 46.9143C152.203 46.5699 151.403 46.0398 150.742 45.36C149.431 43.8146 148.773 41.8187 148.91 39.7964C148.785 37.7826 149.448 35.7992 150.759 34.2655C152.164 32.9925 153.992 32.2876 155.889 32.2876C157.785 32.2876 159.613 32.9925 161.019 34.2655C162.323 35.8026 162.986 37.7835 162.868 39.7964C162.988 41.8145 162.326 43.8014 161.019 45.3436C160.354 46.0239 159.552 46.554 158.666 46.8984C157.779 47.2427 156.83 47.3933 155.88 47.34L155.864 47.3564ZM155.864 44.2309C157.773 44.1982 158.728 42.72 158.728 39.7964C158.728 36.8673 157.762 35.3945 155.831 35.3945C153.9 35.3945 152.935 36.8673 152.935 39.7964C152.935 42.7255 153.9 44.2145 155.831 44.2145L155.864 44.2309ZM140.728 41.0727C139.829 41.0901 138.931 40.9855 138.06 40.7618C138.059 41.2493 138.155 41.7322 138.344 42.1819C138.532 42.6316 138.808 43.039 139.157 43.38C139.968 43.9769 140.967 44.2616 141.971 44.1818C142.464 44.1828 142.956 44.15 143.444 44.0836C144.111 43.976 144.772 43.834 145.424 43.6582H145.588H145.637C145.931 43.6582 146.095 43.8709 146.095 44.28V45.54C146.109 45.7553 146.064 45.9704 145.964 46.1618C145.838 46.3078 145.674 46.4155 145.49 46.4727C144.152 46.9831 142.732 47.2384 141.3 47.2255C140.363 47.2896 139.422 47.1584 138.537 46.8401C137.653 46.5218 136.844 46.0234 136.162 45.3764C134.881 43.9059 134.234 41.988 134.362 40.0418C134.222 37.9785 134.891 35.9418 136.228 34.3636C136.88 33.6808 137.673 33.1473 138.552 32.7999C139.43 32.4524 140.374 32.2993 141.317 32.3509C142.737 32.2662 144.139 32.7025 145.26 33.5782C145.723 33.9853 146.089 34.4901 146.332 35.0561C146.576 35.6221 146.69 36.2352 146.668 36.8509C146.702 37.4539 146.58 38.0556 146.314 38.5975C146.047 39.1394 145.645 39.6031 145.146 39.9436C143.816 40.7459 142.279 41.1386 140.728 41.0727ZM141.104 35.1655C139.386 35.1655 138.388 36.2455 138.11 38.4382C138.902 38.5893 139.708 38.6605 140.515 38.6509C141.161 38.663 141.799 38.505 142.364 38.1927C142.569 38.0445 142.734 37.8468 142.843 37.6179C142.952 37.3891 143.001 37.1365 142.986 36.8836C142.986 35.7382 142.315 35.1655 140.957 35.1655" fill="white"/>
<path id="path16" fill-rule="evenodd" clip-rule="evenodd" d="M23.7931 35.3455C22.8357 35.3417 21.8957 35.6022 21.0768 36.0982V43.4291C21.895 43.9267 22.8354 44.1873 23.7931 44.1818C24.2337 44.2121 24.6748 44.1305 25.0753 43.9445C25.4759 43.7586 25.8229 43.4743 26.084 43.1182C26.6388 42.1207 26.8945 40.9845 26.8204 39.8455C26.9453 38.6624 26.7236 37.4685 26.1822 36.4091C25.9195 36.0505 25.5699 35.7648 25.1662 35.5787C24.7626 35.3926 24.3182 35.3123 23.8749 35.3455H23.7931ZM17.0349 33.3982C17.0142 33.3029 17.0175 33.204 17.0444 33.1103C17.0713 33.0166 17.121 32.9311 17.1892 32.8614C17.2573 32.7916 17.3416 32.7399 17.4347 32.7108C17.5277 32.6817 17.6265 32.6761 17.7222 32.6946H19.7186C19.9038 32.68 20.0877 32.736 20.2333 32.8513C20.379 32.9666 20.4757 33.1328 20.504 33.3164L20.684 34.0364C21.2606 33.4697 21.945 33.0245 22.6968 32.7273C23.4589 32.4102 24.2768 32.2488 25.1022 32.2527C25.9177 32.2212 26.7289 32.3844 27.4687 32.7287C28.2086 33.073 28.8558 33.5886 29.3568 34.2327C30.4643 35.7835 31.0124 37.6643 30.9113 39.5673C30.9433 40.9538 30.6812 42.3313 30.1422 43.6091C29.6943 44.6736 28.9644 45.5958 28.0313 46.2764C27.1406 46.9006 26.0752 47.2271 24.9877 47.2091C24.2822 47.2086 23.581 47.0982 22.9095 46.8818C22.2313 46.6585 21.6071 46.2962 21.0768 45.8182V51.9218C21.0972 52.1139 21.0447 52.3067 20.9295 52.4618C20.8562 52.5258 20.7701 52.5734 20.6771 52.6016C20.584 52.6298 20.486 52.638 20.3895 52.6255H17.7222C17.6265 52.6439 17.5277 52.6384 17.4347 52.6093C17.3416 52.5802 17.2573 52.5284 17.1892 52.4587C17.121 52.3889 17.0713 52.3034 17.0444 52.2097C17.0175 52.116 17.0142 52.0171 17.0349 51.9218V33.3982Z" fill="#18A6E1"/>
<path id="path18" fill-rule="evenodd" clip-rule="evenodd" d="M37.4566 34.8218C38.045 34.1182 38.7543 33.5253 39.5511 33.0709C40.1914 32.7329 40.9053 32.5586 41.6293 32.5637H42.022C42.21 32.5576 42.3946 32.6153 42.5457 32.7273C42.6079 32.8017 42.6545 32.8878 42.6826 32.9806C42.7107 33.0734 42.7198 33.1709 42.7093 33.2673V35.6073C42.7252 35.799 42.6731 35.9902 42.562 36.1473C42.4101 36.2698 42.2165 36.3285 42.022 36.3109H41.5148H40.7457C40.1947 36.3167 39.646 36.3825 39.1093 36.5073C38.5746 36.5971 38.0527 36.7509 37.5548 36.9655V46.3091C37.5707 46.5008 37.5185 46.692 37.4075 46.8491C37.3342 46.913 37.2482 46.9607 37.1551 46.9889C37.062 47.0171 36.964 47.0252 36.8675 47.0128H34.3639C34.1746 47.0294 33.9863 46.9706 33.8402 46.8491C33.7788 46.7743 33.7327 46.6881 33.7046 46.5954C33.6766 46.5028 33.667 46.4055 33.6766 46.3091V33.3982C33.6641 33.3017 33.6722 33.2037 33.7004 33.1106C33.7286 33.0176 33.7763 32.9315 33.8402 32.8582C33.9912 32.7483 34.1789 32.7014 34.3639 32.7273H36.3602C36.5454 32.7127 36.7293 32.7687 36.875 32.8841C37.0207 32.9994 37.1174 33.1655 37.1457 33.3491L37.5057 34.8546L37.4566 34.8218Z" fill="#18A6E1"/>
<path id="path20" fill-rule="evenodd" clip-rule="evenodd" d="M44.705 33.3982C44.6843 33.303 44.6875 33.204 44.7144 33.1103C44.7414 33.0167 44.7911 32.9311 44.8592 32.8614C44.9273 32.7916 45.0117 32.7399 45.1047 32.7108C45.1978 32.6817 45.2966 32.6761 45.3923 32.6946H48.0596C48.1559 32.685 48.2532 32.6945 48.3459 32.7226C48.4385 32.7507 48.5247 32.7968 48.5996 32.8582C48.7147 33.0133 48.7673 33.2061 48.7468 33.3982V46.2273C48.7628 46.419 48.7106 46.6102 48.5996 46.7673C48.5247 46.8287 48.4385 46.8748 48.3459 46.9029C48.2532 46.931 48.1559 46.9405 48.0596 46.9309H45.3923C45.2984 46.9411 45.2035 46.9318 45.1134 46.9036C45.0233 46.8755 44.94 46.8291 44.8686 46.7673C44.8072 46.6925 44.7611 46.6063 44.7331 46.5136C44.705 46.4209 44.6954 46.3236 44.705 46.2273V33.3982ZM46.7177 30.5018C46.1174 30.5197 45.5326 30.3092 45.0814 29.9128C44.6714 29.4861 44.4424 28.9172 44.4424 28.3255C44.4424 27.7337 44.6714 27.1649 45.0814 26.7382C45.5326 26.3418 46.1174 26.1313 46.7177 26.1491C47.3173 26.1361 47.9004 26.346 48.3541 26.7382C48.7641 27.1649 48.9931 27.7337 48.9931 28.3255C48.9931 28.9172 48.7641 29.4861 48.3541 29.9128C47.9004 30.305 47.3173 30.5149 46.7177 30.5018Z" fill="#18A6E1"/>
<path id="path22" fill-rule="evenodd" clip-rule="evenodd" d="M55.8652 34.0691C56.6818 33.5099 57.5673 33.0589 58.4998 32.7273C59.2832 32.4526 60.1078 32.3143 60.938 32.3182C61.6325 32.2571 62.3302 32.3918 62.952 32.7071C63.5739 33.0223 64.095 33.5055 64.4562 34.1018C65.267 33.5248 66.1535 33.0623 67.0907 32.7273C67.925 32.4531 68.798 32.3149 69.6762 32.3182C70.2227 32.2832 70.7706 32.3611 71.2857 32.5469C71.8009 32.7326 72.2723 33.0224 72.6707 33.3982C73.0463 33.8067 73.3355 34.2869 73.5211 34.8099C73.7066 35.3329 73.7847 35.8879 73.7507 36.4418V46.26C73.7674 46.4493 73.7086 46.6375 73.5871 46.7836C73.5138 46.8476 73.4277 46.8952 73.3346 46.9234C73.2415 46.9516 73.1435 46.9598 73.0471 46.9473H70.3634C70.2695 46.9584 70.1744 46.9496 70.0841 46.9214C69.9939 46.8932 69.9106 46.8463 69.8398 46.7836C69.7767 46.7126 69.7283 46.6297 69.6974 46.5398C69.6665 46.45 69.6537 46.3549 69.6598 46.26V37.2927C69.6598 36.0327 69.1034 35.3946 68.0234 35.3946C66.9767 35.407 65.9468 35.6588 65.0125 36.1309V46.2436C65.0212 46.432 64.9633 46.6174 64.8489 46.7673C64.7756 46.8312 64.6895 46.8789 64.5964 46.9071C64.5034 46.9353 64.4053 46.9434 64.3089 46.9309H61.658C61.5641 46.9421 61.4689 46.9333 61.3787 46.9051C61.2884 46.8769 61.2052 46.8299 61.1343 46.7673C61.0713 46.6962 61.0229 46.6133 60.992 46.5235C60.9611 46.4336 60.9483 46.3385 60.9543 46.2436V37.2927C60.9543 36.0327 60.398 35.3946 59.318 35.3946C58.2589 35.407 57.2171 35.6647 56.2743 36.1473V46.2436C56.291 46.4329 56.2322 46.6212 56.1107 46.7673C56.0374 46.8312 55.9514 46.8789 55.8583 46.9071C55.7652 46.9353 55.6672 46.9434 55.5707 46.9309H52.8707C52.7768 46.9421 52.6816 46.9333 52.5914 46.9051C52.5011 46.8769 52.4179 46.8299 52.3471 46.7673C52.2255 46.6212 52.1667 46.4329 52.1834 46.2436V33.3982C52.1709 33.3017 52.1791 33.2037 52.2073 33.1106C52.2355 33.0175 52.2831 32.9315 52.3471 32.8582C52.4179 32.7956 52.5011 32.7486 52.5914 32.7204C52.6816 32.6922 52.7768 32.6834 52.8707 32.6946H54.8671C55.0504 32.6804 55.2323 32.7369 55.3753 32.8525C55.5183 32.9681 55.6116 33.1341 55.6362 33.3164L55.8652 34.0691Z" fill="#18A6E1"/>
<path id="path24" fill-rule="evenodd" clip-rule="evenodd" d="M82.8984 35.1C81.1311 35.1 80.1002 36.1963 79.8384 38.3727C80.6476 38.5237 81.4697 38.595 82.2929 38.5854C83.0063 38.6364 83.7198 38.4892 84.3547 38.16C84.5603 38.0081 84.7249 37.8074 84.8334 37.576C84.942 37.3446 84.9912 37.0897 84.9765 36.8345C84.9765 35.6563 84.2893 35.0836 82.8984 35.0836M82.522 41.0891C81.597 41.1046 80.6736 41.0056 79.7729 40.7945C79.782 41.7979 80.1879 42.7569 80.902 43.4618C81.7435 44.0606 82.7687 44.3444 83.7984 44.2636C84.3018 44.264 84.8047 44.2312 85.3038 44.1654C85.9882 44.0652 86.6659 43.9231 87.3329 43.74H87.5129H87.6438C87.9547 43.74 88.1184 43.9527 88.1184 44.3782V45.6545C88.1352 45.8701 88.0897 46.0859 87.9875 46.2763C87.8649 46.4297 87.6998 46.5436 87.5129 46.6036C86.1398 47.1311 84.6802 47.3974 83.2093 47.3891C82.2478 47.4512 81.2837 47.3148 80.3772 46.9882C79.4707 46.6616 78.6412 46.152 77.9402 45.4909C77.2864 44.7537 76.7861 43.8935 76.4686 42.9607C76.1511 42.0279 76.0228 41.0412 76.0911 40.0582C75.9633 37.9887 76.6372 35.9494 77.9729 34.3636C78.645 33.6621 79.4611 33.1146 80.3651 32.7587C81.269 32.4028 82.2393 32.2469 83.2093 32.3018C84.6578 32.2121 86.0892 32.6543 87.2347 33.5454C87.7153 33.9581 88.096 34.4744 88.3483 35.0554C88.6006 35.6364 88.7178 36.2671 88.6911 36.9C88.7152 37.523 88.577 38.1417 88.2902 38.6953C88.0033 39.2489 87.5776 39.7185 87.0547 40.0582C85.655 40.8598 84.0496 41.2299 82.4402 41.1218" fill="#18A6E1"/>
</g>
<defs>
<clipPath id="clip0_23_183">
<rect width="180" height="90" fill="white"/>
</clipPath>
</defs>
</svg>
