<svg width="180" height="90" viewBox="0 0 180 90" fill="none" xmlns="http://www.w3.org/2000/svg">
<g id="directv 4" clip-path="url(#clip0_23_173)">
<path id="Vector" d="M180 0H0V90H180V0Z" fill="white"/>
<path id="Vector_2" d="M107.493 43.3964C106.712 43.4266 105.937 43.2466 105.249 42.8753C104.561 42.5041 103.986 41.955 103.582 41.2855C102.666 39.8455 102.748 36.5891 102.748 35.5909C102.748 35.5909 102.748 30.0273 102.911 29.34L97.4459 29.16C97.2659 29.9782 97.315 36.3109 97.315 36.3109C97.315 39.3709 97.5441 42.1364 99.2786 44.3455C100.265 45.559 101.513 46.5328 102.931 47.1933C104.348 47.8537 105.897 48.1837 107.46 48.1582C109.922 48.2451 112.327 47.4033 114.197 45.7998C116.068 44.1963 117.267 41.9483 117.557 39.5018H112.042C111.897 40.5975 111.353 41.6011 110.513 42.3199C109.674 43.0387 108.598 43.4221 107.493 43.3964ZM66.7641 36.1146C67.9043 35.7268 68.9326 35.0665 69.7596 34.191C70.5866 33.3156 71.1873 32.2514 71.5095 31.0909C64.9895 32.0529 58.5229 33.3474 52.135 34.9691V48.06H57.4859V36.9982H61.3313L66.6823 47.9455H72.8841L66.7641 36.1146ZM94.3532 43.1018H81.6877V36.5564H92.5204V31.6964H81.6877V29.8146C79.9368 29.9782 78.1368 30.1582 76.3368 30.3709V47.9455H94.3368V43.1509L94.3532 43.1018ZM26.4113 48.0109C27.7316 48.0751 29.0513 47.8752 30.2933 47.4228C31.5353 46.9704 32.6744 46.2747 33.6441 45.3764C35.0897 43.8994 35.9998 41.9812 36.2295 39.9273C30.1962 42.1086 24.3558 44.7907 18.7695 47.9455L26.4113 48.0109ZM41.3841 48.0109H46.735V36.3764C44.9023 36.9109 43.1186 37.4564 41.3841 38.0127V48.0109ZM157.926 20.52L152.411 38.3891L146.897 20.52H141.366L150.399 47.9455H154.408L163.506 20.52H157.926ZM119.046 25.2818H126.197V47.9455H131.564V25.2818H138.715V20.52H119.079L119.046 25.2818Z" fill="#007AC0"/>
<path id="Vector_3" d="M107.509 20.2909C105.583 20.2598 103.684 20.7458 102.011 21.6982C99.9749 22.8769 98.4782 24.802 97.8378 27.0654C99.1796 27.0654 101.111 27.0654 103.565 27.2454C104.005 26.5145 104.641 25.921 105.401 25.532C106.16 25.1429 107.013 24.9738 107.864 25.0435C108.715 25.1133 109.529 25.4192 110.215 25.9267C110.901 26.4343 111.431 27.1234 111.747 27.9163C113.661 28.1454 115.641 28.4236 117.572 28.7673C117.281 26.3422 116.08 24.1181 114.212 22.5447C112.344 20.9712 109.948 20.1656 107.509 20.2909ZM26.0505 20.5036H16.4941V41.0891C18.2287 40.4018 20.0123 39.7473 21.8614 39.1091V25.2818H25.9523C26.6941 25.2288 27.438 25.349 28.1253 25.633C28.8126 25.917 29.4244 26.357 29.9123 26.9182C30.9432 28.2273 31.0414 29.34 31.0414 36.1473C32.7923 35.6563 36.4251 34.7073 36.4251 34.7073C36.4251 28.1618 36.425 25.9691 33.6432 23.0727C32.6228 22.1447 31.4217 21.4375 30.1151 20.9954C28.8086 20.5533 27.4248 20.3859 26.0505 20.5036ZM41.3832 33.5945C43.1178 33.2018 44.9014 32.8254 46.7341 32.4654V20.52H41.3832V33.5945ZM94.3523 20.5036H76.3523V28.0636C78.1523 27.9 79.936 27.7527 81.7032 27.6382V25.2818H94.4178V20.52L94.3523 20.5036ZM62.8687 20.5036H52.1341V31.3854C53.9014 31.0582 55.6851 30.7636 57.4851 30.4691V25.2818H62.525C63.0493 25.2366 63.5771 25.3069 64.0712 25.4877C64.5653 25.6685 65.0139 25.9554 65.3851 26.3283C65.7564 26.7011 66.0415 27.1508 66.2202 27.6457C66.3989 28.1406 66.467 28.6687 66.4196 29.1927L71.7541 28.5545C71.724 27.4351 71.4671 26.3334 70.9989 25.3162C70.5308 24.2989 69.8611 23.3871 69.0305 22.6361C68.1999 21.885 67.2256 21.3102 66.1665 20.9465C65.1074 20.5828 63.9855 20.4377 62.8687 20.52V20.5036Z" fill="#231F20"/>
<path id="Vector_4" d="M76.9095 61.9036C76.3603 61.1998 75.6052 60.685 74.7495 60.4309L72.2131 59.6454C71.4843 59.4357 70.7774 59.1562 70.1022 58.8109C69.8485 58.714 69.6293 58.5442 69.472 58.3229C69.3147 58.1016 69.2265 57.8386 69.2186 57.5673C69.2108 57.3192 69.2688 57.0735 69.3866 56.8551C69.5044 56.6367 69.6779 56.4533 69.8895 56.3236C70.5884 55.9537 71.3915 55.83 72.1694 55.9725C72.9472 56.115 73.6544 56.5154 74.1767 57.1091L76.9095 55.1127C76.4306 54.5307 75.848 54.0425 75.1913 53.6727C74.1171 53.0729 72.9033 52.768 71.6731 52.7891C70.1731 52.735 68.7019 53.21 67.5167 54.1309C66.9843 54.549 66.5584 55.0873 66.274 55.7016C65.9896 56.316 65.8547 56.9889 65.8804 57.6654C65.845 58.6168 66.1593 59.5482 66.764 60.2836C67.332 60.9597 68.0814 61.4594 68.924 61.7236L71.4604 62.4927C72.1905 62.7126 72.8975 63.0031 73.5713 63.36C73.8194 63.4583 74.0335 63.6267 74.1875 63.8446C74.3415 64.0625 74.4287 64.3206 74.4386 64.5873C74.4386 65.7818 73.5386 66.3709 71.7386 66.3709C70.9768 66.4471 70.2118 66.2618 69.5694 65.8454C68.927 65.4291 68.4455 64.8064 68.204 64.08L65.2422 65.7982C65.7393 66.9573 66.6011 67.9225 67.6967 68.5473C68.9322 69.2295 70.3278 69.5685 71.7386 69.5291C73.3199 69.5873 74.8769 69.1276 76.1731 68.22C76.7431 67.8135 77.203 67.2716 77.5115 66.6432C77.82 66.0148 77.9674 65.3195 77.9404 64.62C77.9347 63.62 77.5687 62.6556 76.9095 61.9036Z" fill="#231F20"/>
<path id="Vector_5" d="M92.4549 56.0618C92.8623 55.119 93.555 54.3278 94.4357 53.7994C95.3163 53.271 96.3405 53.0321 97.364 53.1163V56.8309C96.1443 56.7252 94.9266 57.0557 93.9276 57.7636C93.4145 58.1852 93.0132 58.7268 92.7592 59.3405C92.5052 59.9541 92.4063 60.6209 92.4713 61.2818V69.3H89.0186V53.3945H92.4549V56.0618Z" fill="#231F20"/>
<path id="Vector_6" d="M101.454 62.8036C101.633 63.9073 102.217 64.9048 103.091 65.6018C104.081 66.2659 105.254 66.6035 106.445 66.5673C107.24 66.6183 108.035 66.4628 108.751 66.1158C109.468 65.7689 110.083 65.2423 110.536 64.5873L113.384 66.2236C112.623 67.3579 111.581 68.2744 110.358 68.8828C109.136 69.4911 107.776 69.7703 106.413 69.6927C105.263 69.7442 104.115 69.5619 103.037 69.1569C101.96 68.7519 100.976 68.1326 100.145 67.3364C99.3554 66.5535 98.7356 65.6161 98.3245 64.5828C97.9134 63.5495 97.72 62.4424 97.7563 61.3309C97.726 60.2279 97.9191 59.1302 98.3241 58.1038C98.729 57.0773 99.3374 56.1434 100.113 55.3582C100.899 54.5634 101.841 53.9405 102.881 53.5293C103.92 53.118 105.034 52.9272 106.151 52.9691C107.228 52.9325 108.3 53.1317 109.292 53.5529C110.284 53.974 111.173 54.6069 111.894 55.4073C113.383 57.0289 114.186 59.1632 114.136 61.3636C114.132 61.841 114.088 62.3171 114.005 62.7873L101.454 62.8036ZM101.454 60.0055H110.814C110.691 58.8992 110.153 57.8807 109.309 57.155C108.465 56.4294 107.378 56.0505 106.265 56.0946C105.117 56.0615 103.994 56.4321 103.091 57.1418C102.225 57.8737 101.645 58.8879 101.454 60.0055Z" fill="#231F20"/>
<path id="Vector_7" d="M128.929 53.3945H132.366V69.3H128.929V67.0909C128.302 67.9712 127.464 68.6797 126.492 69.1515C125.52 69.6233 124.445 69.8432 123.366 69.7909C122.317 69.7858 121.281 69.5603 120.326 69.1289C119.37 68.6976 118.516 68.0702 117.818 67.2873C116.323 65.6672 115.493 63.5436 115.493 61.3391C115.493 59.1346 116.323 57.011 117.818 55.3909C118.534 54.6201 119.403 54.0078 120.37 53.5935C121.337 53.1791 122.379 52.972 123.431 52.9855C124.494 52.9474 125.55 53.1689 126.508 53.6308C127.466 54.0927 128.297 54.7811 128.929 55.6364V53.3945ZM120.306 64.9964C121.273 65.9197 122.56 66.4348 123.897 66.4348C125.235 66.4348 126.521 65.9197 127.489 64.9964C128.413 64.0057 128.926 62.7017 128.926 61.3473C128.926 59.9928 128.413 58.6888 127.489 57.6982C126.521 56.7749 125.235 56.2597 123.897 56.2597C122.56 56.2597 121.273 56.7749 120.306 57.6982C119.382 58.6888 118.868 59.9928 118.868 61.3473C118.868 62.7017 119.382 64.0057 120.306 64.9964Z" fill="#231F20"/>
<path id="Vector_8" d="M151.855 53.0018C152.665 52.9675 153.474 53.1058 154.227 53.4077C154.98 53.7095 155.661 54.168 156.224 54.7527C157.366 56.0419 157.954 57.7293 157.86 59.4491V69.2672H154.424V59.6782C154.485 58.7515 154.186 57.8368 153.589 57.1254C153.3 56.8195 152.949 56.5794 152.56 56.4212C152.17 56.2631 151.751 56.1907 151.331 56.2091C150.858 56.1896 150.386 56.2732 149.948 56.454C149.51 56.6348 149.116 56.9086 148.795 57.2563C148.107 58.1592 147.775 59.2831 147.862 60.4145V69.3163H144.425V59.6782C144.486 58.7597 144.206 57.851 143.64 57.1254C143.366 56.8142 143.025 56.5699 142.642 56.411C142.259 56.2522 141.845 56.1831 141.431 56.2091C140.956 56.1917 140.484 56.2778 140.046 56.4615C139.608 56.6452 139.215 56.922 138.895 57.2727C138.172 58.1536 137.815 59.2781 137.896 60.4145V69.3163H134.46V53.4109H137.896V55.3254C138.383 54.5715 139.059 53.9596 139.858 53.5515C140.657 53.1434 141.55 52.9538 142.445 53.0018C143.359 52.9552 144.268 53.165 145.069 53.6074C145.87 54.0497 146.531 54.7072 146.978 55.5054C147.49 54.6872 148.213 54.0225 149.071 53.5818C149.93 53.141 150.891 52.9406 151.855 53.0018Z" fill="#231F20"/>
<path id="Vector_9" d="M86.3677 66.2236C85.8227 66.2566 85.2763 66.2566 84.7313 66.2236C84.246 66.2347 83.7738 66.0656 83.4058 65.7491C83.2412 65.5563 83.1172 65.3324 83.0413 65.0905C82.9654 64.8487 82.9391 64.594 82.964 64.3418V56.7H86.3677V53.4273H82.964V50.9891L79.5277 53.6236V64.3418C79.4216 65.1337 79.5158 65.9396 79.8016 66.6858C80.0875 67.4319 80.5559 68.0944 81.164 68.6127C82.7445 69.4127 84.544 69.6714 86.2858 69.3491L86.3677 66.2236Z" fill="#231F20"/>
</g>
<defs>
<clipPath id="clip0_23_173">
<rect width="180" height="90" fill="white"/>
</clipPath>
</defs>
</svg>
