<svg width="33" height="28" viewBox="0 0 33 28" fill="none" xmlns="http://www.w3.org/2000/svg">
<path d="M0.970215 16.4784V19.0576C0.970215 22.7046 0.970215 24.5294 2.32271 25.6617C3.67366 26.7953 5.85088 26.7953 10.2022 26.7953H22.5116M22.5116 26.7953C26.863 26.7953 29.0402 26.7953 30.3911 25.6617C31.7436 24.5294 31.7436 22.7046 31.7436 19.0576V13.8992C31.7436 10.2522 31.7436 8.42738 30.3911 7.29511C29.0402 6.16154 26.863 6.16154 22.5116 6.16154M22.5116 26.7953V16.4784M22.5116 6.16154H10.2022C5.85088 6.16154 3.67366 6.16154 2.32271 7.29511C1.33488 8.12175 1.06869 9.31721 0.996372 11.32M22.5116 6.16154V11.32M11.7409 1.00311L16.3569 5.51674L20.9729 1.00311" stroke="white" stroke-width="1.5" stroke-linecap="round"/>
<path d="M28.6662 19.0576C28.6662 18.7156 28.5041 18.3876 28.2155 18.1457C27.927 17.9039 27.5356 17.768 27.1275 17.768C26.7195 17.768 26.3281 17.9039 26.0395 18.1457C25.751 18.3876 25.5889 18.7156 25.5889 19.0576C25.5889 19.3996 25.751 19.7276 26.0395 19.9695C26.3281 20.2113 26.7195 20.3472 27.1275 20.3472C27.5356 20.3472 27.927 20.2113 28.2155 19.9695C28.5041 19.7276 28.6662 19.3996 28.6662 19.0576ZM28.6662 13.8992C28.6662 13.5571 28.5041 13.2291 28.2155 12.9873C27.927 12.7454 27.5356 12.6096 27.1275 12.6096C26.7195 12.6096 26.3281 12.7454 26.0395 12.9873C25.751 13.2291 25.5889 13.5571 25.5889 13.8992C25.5889 14.2412 25.751 14.5692 26.0395 14.8111C26.3281 15.0529 26.7195 15.1888 27.1275 15.1888C27.5356 15.1888 27.927 15.0529 28.2155 14.8111C28.5041 14.5692 28.6662 14.2412 28.6662 13.8992Z" fill="white"/>
</svg>
