<svg width="188" height="94" viewBox="0 0 188 94" fill="none" xmlns="http://www.w3.org/2000/svg">
<g id="hulu 5" clip-path="url(#clip0_23_167)">
<path id="rect8" d="M188 0H0V94H188V0Z" fill="#38CE7F"/>
<path id="rect10" d="M112.356 24.0298H104.631V64.8088H112.356V24.0298Z" fill="white"/>
<path id="path12" fill-rule="evenodd" clip-rule="evenodd" d="M43.5986 24.0298H51.2725V37.6C52.0357 37.202 52.8908 37.0132 53.7506 37.0531H59.6812C61.904 37.0621 64.0332 37.9491 65.605 39.5209C67.1768 41.0927 68.0638 43.2219 68.0728 45.4448V64.8088H60.3819V48.316C60.3774 47.642 60.1077 46.9969 59.6311 46.5203C59.1545 46.0437 58.5094 45.774 57.8354 45.7695H53.8703C53.5322 45.765 53.1965 45.8274 52.8827 45.9531C52.5688 46.0789 52.2829 46.2655 52.0414 46.5021C51.8 46.7388 51.6077 47.021 51.4757 47.3323C51.3438 47.6436 51.2747 47.9779 51.2725 48.316V64.8088H43.5986V24.0298Z" fill="white"/>
<path id="path14" fill-rule="evenodd" clip-rule="evenodd" d="M98.3243 37.0018V56.4C98.3198 58.6258 97.4348 60.7594 95.8625 62.3349C94.2902 63.9104 92.1584 64.7997 89.9326 64.8087H82.4297C80.2039 64.7997 78.0722 63.9104 76.4999 62.3349C74.9276 60.7594 74.0426 58.6258 74.0381 56.4V37.0018H81.7632V53.8022C81.7587 54.1403 81.8211 54.4759 81.9468 54.7898C82.0726 55.1037 82.2591 55.3896 82.4958 55.631C82.7325 55.8725 83.0147 56.0648 83.326 56.1967C83.6373 56.3287 83.9716 56.3978 84.3097 56.4H88.0526C88.3908 56.3956 88.7247 56.3243 89.0351 56.1902C89.3456 56.0562 89.6265 55.8621 89.8616 55.619C90.0967 55.3759 90.2814 55.0888 90.4051 54.774C90.5287 54.4593 90.5889 54.1232 90.5821 53.7851V37.0018H98.3243Z" fill="white"/>
<path id="path16" fill-rule="evenodd" clip-rule="evenodd" d="M142.949 37.0018V56.4C142.944 58.6258 142.059 60.7594 140.487 62.3349C138.915 63.9104 136.783 64.7997 134.557 64.8087H127.037C124.811 64.7997 122.68 63.9104 121.107 62.3349C119.535 60.7594 118.65 58.6258 118.646 56.4V37.0018H126.371V53.8022C126.366 54.1403 126.428 54.4759 126.554 54.7898C126.68 55.1037 126.867 55.3896 127.103 55.631C127.34 55.8725 127.622 56.0648 127.933 56.1967C128.245 56.3287 128.579 56.3978 128.917 56.4H132.66C133.334 56.3955 133.979 56.1258 134.456 55.6492C134.932 55.1726 135.202 54.5275 135.207 53.8535V37.0018H142.949Z" fill="white"/>
</g>
<defs>
<clipPath id="clip0_23_167">
<rect width="188" height="94" fill="white"/>
</clipPath>
</defs>
</svg>
