<svg width="29" height="30" viewBox="0 0 29 30" fill="none" xmlns="http://www.w3.org/2000/svg">
<path d="M23.6833 26.25L16.0708 18.375C15.4667 18.875 14.7719 19.2708 13.9865 19.5625C13.201 19.8542 12.3653 20 11.4792 20C9.28403 20 7.42642 19.2133 5.90633 17.64C4.38625 16.0667 3.62581 14.145 3.625 11.875C3.625 9.60417 4.38544 7.6825 5.90633 6.11C7.42722 4.5375 9.28483 3.75083 11.4792 3.75C13.6743 3.75 15.5319 4.53667 17.052 6.11C18.5721 7.68333 19.3325 9.605 19.3333 11.875C19.3333 12.7917 19.1924 13.6562 18.9104 14.4688C18.6285 15.2812 18.2458 16 17.7625 16.625L25.375 24.5L23.6833 26.25ZM11.4792 17.5C12.9896 17.5 14.2736 16.9529 15.3313 15.8588C16.389 14.7646 16.9175 13.4367 16.9167 11.875C16.9167 10.3125 16.3878 8.98417 15.3301 7.89C14.2724 6.79583 12.9888 6.24917 11.4792 6.25C9.96875 6.25 8.68469 6.79708 7.627 7.89125C6.56931 8.98542 6.04086 10.3133 6.04167 11.875C6.04167 13.4375 6.57051 14.7658 7.62821 15.86C8.6859 16.9542 9.96956 17.5008 11.4792 17.5Z" fill="white"/>
</svg>
