<svg width="184" height="92" viewBox="0 0 184 92" fill="none" xmlns="http://www.w3.org/2000/svg">
<g clip-path="url(#clip0_23_160)">
<path d="M184 0H0V92H184V0Z" fill="#E6E6E6"/>
<path d="M45.4982 62.4763C43.5578 62.8109 41.6008 62.928 39.5768 63.1956L33.4546 44.7622V63.9818C31.5309 64.1993 29.7578 64.4669 27.9346 64.7345V29.5236H33.0866L40.1288 49.5963V29.5236H45.4982V62.4763ZM56.1535 42.4036C58.2611 42.4036 61.4728 42.3033 63.4131 42.3033V47.8065C61.0044 47.8065 58.1942 47.8065 56.1535 47.9069V56.0865C59.3484 55.8858 62.5266 55.6182 65.7382 55.5011V60.8036L50.6837 62.008V29.5236H65.7382V35.0269H56.1535V42.4036ZM85.8946 35.0102H80.2909V60.3353C78.4509 60.3353 76.6277 60.3353 74.8713 60.3353V35.0269H69.2342V29.5236H85.9615L85.8946 35.0102ZM94.6931 42.0356H102.036V47.5222H94.6931V60.0174H89.3738V29.5236H104.428V35.0269H94.6931V42.0356ZM113.311 55.2C116.388 55.2 119.516 55.5011 122.527 55.6851V61.1214C117.676 60.8036 112.842 60.5025 107.891 60.3854V29.5236H113.311V55.2ZM127.127 61.5062C128.8 61.6065 130.69 61.7236 132.447 61.9243V29.5236H127.127V61.5062ZM156.149 29.5236L149.274 46.2509L156.149 64.6509C154.108 64.3833 152.084 63.9985 150.044 63.664L146.163 53.5273L142.182 62.928C140.208 62.5767 138.318 62.4763 136.361 62.192L143.336 46.0669L137.03 29.5236H142.851L146.414 38.7738L150.211 29.5236H156.149Z" fill="#E50914"/>
</g>
<defs>
<clipPath id="clip0_23_160">
<rect width="184" height="92" fill="white"/>
</clipPath>
</defs>
</svg>
