<svg width="30" height="21" viewBox="0 0 30 21" fill="none" xmlns="http://www.w3.org/2000/svg">
<path d="M3 0.32532L6 5.44281H10.5L7.5 0.32532H10.5L13.5 5.44281H18L15 0.32532H18L21 5.44281H25.5L22.5 0.32532H27C27.825 0.32532 28.5315 0.576076 29.1195 1.07759C29.7075 1.5791 30.001 2.18126 30 2.88406V18.2365C30 18.9402 29.706 19.5428 29.118 20.0443C28.53 20.5458 27.824 20.7961 27 20.7953H3C2.175 20.7953 1.4685 20.5445 0.880502 20.043C0.292502 19.5415 -0.000997453 18.9393 2.54669e-06 18.2365V2.88406C2.54669e-06 2.18041 0.294003 1.57782 0.882002 1.07631C1.47 0.574797 2.176 0.324467 3 0.32532Z" fill="white"/>
</svg>
